<svg width="20" height="20" viewBox="0 0 20 20" fill="none" xmlns="http://www.w3.org/2000/svg">
<path fill-rule="evenodd" clip-rule="evenodd" d="M6.17849 9.16659H15.8333C16.2935 9.16659 16.6666 9.53968 16.6666 9.99992C16.6666 10.4602 16.2935 10.8333 15.8333 10.8333H6.17849L10.5892 15.244C10.9147 15.5694 10.9147 16.0971 10.5892 16.4225C10.2638 16.7479 9.73616 16.7479 9.41072 16.4225L3.57833 10.5901C3.57498 10.5868 3.57165 10.5834 3.56835 10.58C3.49293 10.5023 3.43566 10.4135 3.39655 10.3189C3.3558 10.2206 3.33331 10.1129 3.33331 9.99992C3.33331 9.88693 3.3558 9.77919 3.39655 9.68093C3.43721 9.58264 3.49749 9.49056 3.57739 9.41066L9.41072 3.57733C9.73616 3.25189 10.2638 3.25189 10.5892 3.57733C10.9147 3.90277 10.9147 4.4304 10.5892 4.75584L6.17849 9.16659Z" fill="#4624F1"/>
<mask id="mask0" mask-type="alpha" maskUnits="userSpaceOnUse" x="3" y="3" width="14" height="14">
<path fill-rule="evenodd" clip-rule="evenodd" d="M6.17849 9.16659H15.8333C16.2935 9.16659 16.6666 9.53968 16.6666 9.99992C16.6666 10.4602 16.2935 10.8333 15.8333 10.8333H6.17849L10.5892 15.244C10.9147 15.5694 10.9147 16.0971 10.5892 16.4225C10.2638 16.7479 9.73616 16.7479 9.41072 16.4225L3.57833 10.5901C3.57498 10.5868 3.57165 10.5834 3.56835 10.58C3.49293 10.5023 3.43566 10.4135 3.39655 10.3189C3.3558 10.2206 3.33331 10.1129 3.33331 9.99992C3.33331 9.88693 3.3558 9.77919 3.39655 9.68093C3.43721 9.58264 3.49749 9.49056 3.57739 9.41066L9.41072 3.57733C9.73616 3.25189 10.2638 3.25189 10.5892 3.57733C10.9147 3.90277 10.9147 4.4304 10.5892 4.75584L6.17849 9.16659Z" fill="white"/>
</mask>
<g mask="url(#mask0)">
<rect width="20" height="20" fill="#4624F1"/>
</g>
</svg>
