<svg width="20" height="20" viewBox="0 0 20 20" fill="none" xmlns="http://www.w3.org/2000/svg">
<path d="M15.5833 14.4167C15.9166 14.7501 15.9166 15.2501 15.5833 15.5834C15.4166 15.7501 15.25 15.8334 15 15.8334C14.75 15.8334 14.5833 15.7501 14.4166 15.5834L9.99996 11.1667L5.58329 15.5834C5.41663 15.7501 5.24996 15.8334 4.99996 15.8334C4.74996 15.8334 4.58329 15.7501 4.41663 15.5834C4.08329 15.2501 4.08329 14.7501 4.41663 14.4167L8.83329 10.0001L4.41663 5.58341C4.08329 5.25008 4.08329 4.75008 4.41663 4.41675C4.74996 4.08341 5.24996 4.08341 5.58329 4.41675L9.99996 8.83342L14.4166 4.41675C14.75 4.08341 15.25 4.08341 15.5833 4.41675C15.9166 4.75008 15.9166 5.25008 15.5833 5.58341L11.1666 10.0001L15.5833 14.4167Z" fill="#868589"/>
<mask id="mask0" mask-type="alpha" maskUnits="userSpaceOnUse" x="4" y="4" width="12" height="12">
<path d="M15.5833 14.4167C15.9166 14.7501 15.9166 15.2501 15.5833 15.5834C15.4166 15.7501 15.25 15.8334 15 15.8334C14.75 15.8334 14.5833 15.7501 14.4166 15.5834L9.99996 11.1667L5.58329 15.5834C5.41663 15.7501 5.24996 15.8334 4.99996 15.8334C4.74996 15.8334 4.58329 15.7501 4.41663 15.5834C4.08329 15.2501 4.08329 14.7501 4.41663 14.4167L8.83329 10.0001L4.41663 5.58341C4.08329 5.25008 4.08329 4.75008 4.41663 4.41675C4.74996 4.08341 5.24996 4.08341 5.58329 4.41675L9.99996 8.83342L14.4166 4.41675C14.75 4.08341 15.25 4.08341 15.5833 4.41675C15.9166 4.75008 15.9166 5.25008 15.5833 5.58341L11.1666 10.0001L15.5833 14.4167Z" fill="white"/>
</mask>
<g mask="url(#mask0)">
<rect width="20" height="20" fill="#868589"/>
</g>
</svg>
