<svg width="20" height="20" viewBox="0 0 20 20" fill="none" xmlns="http://www.w3.org/2000/svg">
<path d="M17.8241 9.46667L6.57591 2.59256C6.48117 2.53466 6.37272 2.50304 6.2617 2.50096C6.15069 2.49889 6.04112 2.52642 5.94428 2.58073C5.84744 2.63504 5.76681 2.71417 5.7107 2.80998C5.65458 2.90579 5.625 3.01482 5.625 3.12585V16.8741C5.625 16.9851 5.65458 17.0941 5.7107 17.19C5.76681 17.2858 5.84744 17.3649 5.94428 17.4192C6.04112 17.4735 6.15069 17.501 6.2617 17.499C6.37272 17.4969 6.48117 17.4653 6.57591 17.4074L17.8241 10.5333C17.9154 10.4774 17.9909 10.3991 18.0433 10.3057C18.0957 10.2123 18.1232 10.107 18.1232 9.99997C18.1232 9.8929 18.0957 9.78763 18.0433 9.69425C17.9909 9.60086 17.9154 9.5225 17.8241 9.46667Z" stroke="#F1F1F1" stroke-width="2" stroke-linecap="round" stroke-linejoin="round"/>
</svg>
